<svg width="80" height="80" fill="none" xmlns="http://www.w3.org/2000/svg"><circle cx="40" cy="40" r="40" fill="#0097AB"/><path d="M45.924 63.291c-.471.127-.952.24-1.429.338a2.304 2.304 0 10.923 4.518 29.69 29.69 0 001.705-.403 2.306 2.306 0 10-1.2-4.453zm-16.072-1.284a23.24 23.24 0 01-1.32-.638 2.305 2.305 0 00-2.134 4.088c.514.268 1.043.524 1.573.76a2.306 2.306 0 001.88-4.21zm7.928 2.027a24.924 24.924 0 01-1.46-.162 2.305 2.305 0 10-.648 4.566c.575.08 1.16.146 1.737.192a2.305 2.305 0 10.37-4.596zm15.57-4.183c-.4.276-.816.544-1.234.796a2.307 2.307 0 002.38 3.95c.498-.3.992-.62 1.468-.947a2.306 2.306 0 00-2.614-3.799zm9.064-6.235a2.306 2.306 0 00-3.22.521c-.284.395-.585.787-.893 1.163a2.305 2.305 0 103.567 2.922 28.03 28.03 0 001.066-1.387 2.306 2.306 0 00-.52-3.219zm3.228-8.398a2.305 2.305 0 00-2.86 1.567c-.136.469-.289.939-.452 1.397a2.3 2.3 0 001.391 2.948 2.306 2.306 0 002.95-1.39c.195-.547.376-1.107.538-1.664a2.305 2.305 0 00-1.567-2.858zm4.325-15.022l-3.03.941c-2.3-7.047-7.142-12.838-13.695-16.355a29.01 29.01 0 00-2.02-.986c-.028-.012-.058-.023-.086-.036a28.435 28.435 0 00-18.925-1.393c-.05.01-.1.019-.148.033a28.363 28.363 0 00-1.672.517c-.04.014-.078.031-.118.047A28.415 28.415 0 0016.36 23.366c-.012.016-.026.03-.037.047-.336.472-.662.961-.969 1.455-.02.031-.035.064-.054.097a29.815 29.815 0 00-.88 1.524c-2.849 5.31-3.935 11.241-3.194 17.101l.004.04.006.028a28.96 28.96 0 00.997 4.667 28.442 28.442 0 006.053 10.815 2.306 2.306 0 003.44-3.072 23.782 23.782 0 01-3.5-5.126c-.01-.022-.018-.046-.03-.068a25.095 25.095 0 01-.625-1.338 24.459 24.459 0 01-.922-2.543c-3.022-10.019.832-20.503 8.83-26.365a23.952 23.952 0 017.26-3.617 23.994 23.994 0 017.654-1.016l.121.004a18.075 18.075 0 01.647.032c7.877.492 15.14 4.867 19.219 11.74.002.004.003.009.006.013l.179.307c.007.011.015.022.021.034a24.009 24.009 0 011.947 4.381l-3.03.942c-.841.262-.924.867-.185 1.346l6.594 4.27c.739.48 1.62.206 1.958-.607l3.012-7.257c.337-.814-.074-1.266-.915-1.004z" fill="#fff"/><path d="M31.19 40.063c-2.223 1.646-3.739 3.074-4.546 4.284-.807 1.21-1.292 2.5-1.45 3.873h13.902v-3.777H31.86a16.9 16.9 0 011.11-1.012c.315-.259.938-.71 1.871-1.354 1.57-1.108 2.653-2.124 3.248-3.05.595-.925.893-1.896.893-2.912 0-.956-.26-1.819-.779-2.589-.52-.77-1.233-1.34-2.14-1.712-.905-.371-2.174-.558-3.805-.558-1.562 0-2.785.196-3.669.587-.883.39-1.568.952-2.053 1.683-.486.733-.82 1.751-1.002 3.055l4.642.375c.13-.94.382-1.596.757-1.967.376-.372.858-.558 1.45-.558.57 0 1.042.18 1.417.54.375.36.563.795.563 1.303 0 .47-.19.967-.569 1.491-.38.523-1.248 1.29-2.605 2.298zm21.888 8.157v-3.117h2.093v-3.596h-2.093v-10.25H49.04l-8.441 10.035v3.81h8.441v3.118h4.04zm-8.499-6.713l4.46-5.248v5.248h-4.46z" fill="#fff"/></svg>