<svg width="15" height="30" fill="none" xmlns="http://www.w3.org/2000/svg"><path d="M9.643 15.253a1.086 1.086 0 01-.773-1.041V7.08c0-.964 1.167-1.452 1.846-.768l.592.594c.83.833 2.23-.079 1.77-1.188-.117-.286.244.127-5.578-5.718L2.157 5.364c-.205.206-.318.48-.318.77 0 .97 1.165 1.463 1.852.772.562-.564.798-.912 1.357-.912.591 0 1.082.481 1.082 1.086v7.132c0 .48-.314.904-.773 1.04C2.203 16.196 0 19.164 0 22.47 0 26.622 3.364 30 7.5 30c4.135 0 7.5-3.378 7.5-7.53 0-3.307-2.203-6.275-5.357-7.217zM7.5 27.249c-2.625 0-4.76-2.144-4.76-4.779s2.135-4.778 4.76-4.778c2.624 0 4.76 2.143 4.76 4.778s-2.137 4.78-4.76 4.78z" fill="#989898"/></svg>