<svg width="64" height="61" fill="none" xmlns="http://www.w3.org/2000/svg"><path d="M59.428 10.667a1.524 1.524 0 00-1.524-1.524H56.38v-7.62a1.524 1.524 0 10-3.047 0v7.62h-1.524a1.524 1.524 0 00-1.524 1.524v4.571h9.143v-4.571zm3.049 47.238h-3.048V51.81h-9.143v6.095H47.24a1.524 1.524 0 000 3.047h15.238a1.523 1.523 0 100-3.047zm0-39.619H47.239a1.524 1.524 0 00-1.524 1.523v3.048h3.047a1.524 1.524 0 110 3.048h-3.047v3.047h3.047a1.524 1.524 0 010 3.048h-3.047v3.048h3.047a1.524 1.524 0 110 3.047h-3.047v3.048h3.047a1.524 1.524 0 110 3.047h-3.047v3.048a1.524 1.524 0 001.524 1.524h15.238A1.523 1.523 0 0064 47.238V19.81a1.524 1.524 0 00-1.524-1.524zM21.334 28.952v-4.571h-3.047v4.571a1.524 1.524 0 01-1.524 1.524H12.19v3.048h4.572a1.524 1.524 0 011.524 1.523v4.572h3.047v-4.572a1.524 1.524 0 011.524-1.523h4.572v-3.048h-4.572a1.523 1.523 0 01-1.524-1.524z" fill="#478FED"/><path d="M19.81 12.19A19.81 19.81 0 1039.62 32a19.886 19.886 0 00-19.81-19.81zm10.666 22.858a1.524 1.524 0 01-1.524 1.523h-4.571v4.572a1.524 1.524 0 01-1.524 1.524h-6.095a1.524 1.524 0 01-1.524-1.524V36.57h-4.571a1.524 1.524 0 01-1.524-1.523v-6.096a1.524 1.524 0 011.524-1.524h4.571v-4.57a1.524 1.524 0 011.524-1.525h6.095a1.523 1.523 0 011.524 1.524v4.572h4.571a1.524 1.524 0 011.524 1.523v6.096z" fill="#478FED"/></svg>