<svg width="61" height="62" fill="none" xmlns="http://www.w3.org/2000/svg"><path d="M32.096 36.781v-4.59h-3.06v4.59a1.53 1.53 0 01-1.53 1.53h-4.59v3.06h4.59a1.53 1.53 0 011.53 1.53v4.59h3.06V42.9a1.53 1.53 0 011.53-1.53h4.59v-3.06h-4.59a1.53 1.53 0 01-1.53-1.53z" fill="#61B537"/><path d="M30.567 18.422c-13.77 0-24.48 13.157-24.48 24.479 0 11.321 9.869 18.359 24.48 18.359 14.61 0 24.478-7.42 24.478-18.36 0-10.938-10.71-24.478-24.478-24.478zm10.709 24.479a1.53 1.53 0 01-1.53 1.53h-4.59v4.59a1.53 1.53 0 01-1.53 1.53h-6.12a1.53 1.53 0 01-1.53-1.53v-4.59h-4.589a1.53 1.53 0 01-1.53-1.53v-6.12a1.53 1.53 0 011.53-1.53h4.59v-4.59a1.53 1.53 0 011.53-1.53h6.12a1.53 1.53 0 011.53 1.53v4.59h4.59a1.53 1.53 0 011.529 1.53v6.12zM17.943 13.603a5.66 5.66 0 003.978 1.683h.841a5.662 5.662 0 003.978-3.213 8.185 8.185 0 00.689-5.431 8.644 8.644 0 00-2.525-4.896A5.583 5.583 0 0020.085.139c-3.29.612-5.431 4.437-4.666 8.645a8.185 8.185 0 002.524 4.819zm20.425 1.607h.842a5.661 5.661 0 003.977-1.684 8.185 8.185 0 002.525-4.819C46.477 4.5 44.335.675 41.046.063a5.584 5.584 0 00-4.82 1.607 8.644 8.644 0 00-2.524 4.895 8.186 8.186 0 00.688 5.431 5.662 5.662 0 003.978 3.213zM8.917 24.083c3.137-1.148 4.59-5.355 3.137-9.333a8.798 8.798 0 00-3.366-4.36 5.738 5.738 0 00-5.049-.69C.503 10.85-.874 14.98.58 18.957c1.454 3.978 3.902 5.432 6.656 5.432a6.499 6.499 0 001.682-.306zM57.492 9.701a5.737 5.737 0 00-5.049.689 8.797 8.797 0 00-3.365 4.36c-1.454 3.978 0 8.185 3.136 9.333.545.175 1.11.278 1.683.306 2.754 0 5.508-2.142 6.655-5.431 1.147-3.29.077-8.11-3.06-9.257z" fill="#61B537"/></svg>