<svg width="35" height="61" fill="none" xmlns="http://www.w3.org/2000/svg"><path d="M29.047 17.429a2.905 2.905 0 00-2.905-2.905H8.713a2.905 2.905 0 00-2.904 2.905v2.904h23.238V17.43zM8.714 5.81a1.452 1.452 0 001.016-.436l2.47-2.47h3.776V5.81h-1.453a1.452 1.452 0 00-1.452 1.452v4.357h8.714V7.262a1.453 1.453 0 00-1.452-1.452H18.88V2.905h7.262a1.452 1.452 0 000-2.905H11.618a1.453 1.453 0 00-1.016.436L7.697 3.34a1.38 1.38 0 000 2.034c.268.273.634.43 1.017.436zM18.88 39.214v-4.357h-2.904v4.357a1.452 1.452 0 01-1.453 1.453h-4.357v2.904h4.357a1.452 1.452 0 011.453 1.453v4.357h2.904v-4.357a1.452 1.452 0 011.453-1.453h4.357v-2.904h-4.357a1.452 1.452 0 01-1.453-1.453z" fill="#ED4794"/><path d="M29.048 23.238H5.81A5.81 5.81 0 000 29.048V55.19A5.81 5.81 0 005.81 61h23.238a5.81 5.81 0 005.81-5.81V29.048a5.81 5.81 0 00-5.81-5.81zm-1.453 21.786a1.452 1.452 0 01-1.452 1.452h-4.357v4.357a1.452 1.452 0 01-1.453 1.453h-5.81a1.453 1.453 0 01-1.452-1.453v-4.357H8.714a1.452 1.452 0 01-1.452-1.452v-5.81a1.452 1.452 0 011.452-1.452h4.357v-4.357a1.452 1.452 0 011.453-1.453h5.81a1.452 1.452 0 011.452 1.453v4.357h4.357a1.452 1.452 0 011.452 1.452v5.81z" fill="#ED4794"/></svg>