<svg width="61" height="61" fill="none" xmlns="http://www.w3.org/2000/svg"><path d="M49.41 1.604C45.369-.378 38.888-1.522 30.5 4.35 22.113-1.522 15.631-.378 11.59 1.604 4.651 5.111 0 13.88 0 23.41 0 44.15 24.552 61 30.5 61 36.447 61 61 44.15 61 23.41c0-9.53-4.651-18.299-11.59-21.806zM32.711 20.132c.458-2.516 2.212-4.27 4.041-3.965 1.83.305 2.974 2.592 2.517 5.185-.458 2.592-1.983 3.965-3.66 3.965h-.382a2.898 2.898 0 01-2.21-1.907 5.794 5.794 0 01-.306-3.278zm-8.463-3.965c1.83-.305 3.583 1.449 4.04 3.965a5.794 5.794 0 01-.304 3.278 2.897 2.897 0 01-2.212 1.907h-.38c-1.678 0-3.28-1.678-3.66-3.965-.382-2.288.61-4.88 2.515-5.185zM19.9 29.13a3.354 3.354 0 01-1.83 2.211l-.838.153a3.278 3.278 0 01-1.983-.687 5.565 5.565 0 01-1.906-2.744c-.915-2.44-.229-4.804 1.601-5.49a2.898 2.898 0 012.745.61 6.253 6.253 0 011.982 2.592 6.328 6.328 0 01.23 3.355zm10.6 14.333c-6.1 0-9.76-2.21-9.76-5.947 0-3.736 4.27-8.54 9.76-8.54s9.76 4.575 9.76 8.54c0 3.965-3.66 5.947-9.76 5.947zm17.156-15.401a5.565 5.565 0 01-1.906 2.744 3.281 3.281 0 01-1.983.687l-.838-.153a3.354 3.354 0 01-1.83-2.211 6.328 6.328 0 01.229-3.355 6.253 6.253 0 011.982-2.592 2.898 2.898 0 012.745-.61c1.83.686 2.516 3.05 1.601 5.49z" fill="#FF7F00"/></svg>